Coordinates
version=1
nRows=16
nColumns=22
inDegrees=yes

Units are S.I. units (second, meters, Newtons, ...)
If the header above contains a line with 'inDegrees', this indicates whether rotational values are in degrees (yes) or radians (no).

endheader
time	pelvis_tilt	pelvis_list	pelvis_rotation	pelvis_tx	pelvis_ty	pelvis_tz	hip_flexion_r	hip_adduction_r	hip_rotation_r	knee_angle_r	ankle_angle_r	subtalar_angle_r	hip_flexion_l	hip_adduction_l	hip_rotation_l	knee_angle_l	ankle_angle_l	subtalar_angle_l	lumbar_extension	lumbar_bending	lumbar_rotation
      0.01000000	     -0.64435571	     -3.08473571	     -7.20810002	     -1.23874696	      1.01643449	      0.67201997	      7.45218137	      1.16854276	     -3.98378784	    -22.06081095	     13.65266190	     -1.04085205	      1.75695148	      0.75272892	     -8.78597130	    -13.27748060	     14.44956755	     -8.53038695	    -12.10132568	      0.13099944	      1.08033038
      0.02000000	     -0.53828976	     -3.01618090	     -7.17184041	     -1.23803674	      1.01633203	      0.67106598	      7.76689143	      1.01679067	     -3.95318402	    -22.88218346	     13.65228377	     -1.05021772	      1.59231507	      0.90847156	     -8.76325395	    -13.22441135	     14.50811701	     -8.63908172	    -12.23668389	      0.03828754	      1.03953487
      0.03000000	     -0.51525265	     -2.92268524	     -7.12274238	     -1.23725733	      1.01606099	      0.66994169	      8.28185577	      0.84116696	     -3.90074116	    -23.90762568	     13.67431406	     -1.05451820	      1.53961896	      1.08953063	     -8.69770852	    -13.21507593	     14.50410744	     -8.76617824	    -12.27985414	     -0.06766973	      1.00607007
      0.04000000	     -0.50336429	     -2.84173318	     -7.06680992	     -1.23632875	      1.01577344	      0.66872728	      8.87357037	      0.67819045	     -3.82604896	    -25.06153095	     13.62097328	     -1.05087400	      1.47923990	      1.26072548	     -8.65336347	    -13.18668485	     14.56292511	     -8.86768064	    -12.30671224	     -0.15547162	      0.94295423
      0.05000000	     -0.44110353	     -2.75510176	     -7.00586901	     -1.23529331	      1.01558442	      0.66744052	      9.45795576	      0.50772615	     -3.68489900	    -26.30165404	     13.56504143	     -1.04865845	      1.34335942	      1.45369738	     -8.58749031	    -13.12702605	     14.57683324	     -8.92181373	    -12.39426307	     -0.25144918	      0.87640889
      0.06000000	     -0.42544949	     -2.68593675	     -6.93659052	     -1.23419227	      1.01535951	      0.66612217	     10.13632296	      0.36773792	     -3.50257389	    -27.61631097	     13.44876144	     -0.99961125	      1.25247439	      1.62315935	     -8.51786827	    -13.06935165	     14.60497126	     -8.99666208	    -12.42691562	     -0.31470956	      0.80570634
      0.07000000	     -0.39740702	     -2.64465379	     -6.85844283	     -1.23303826	      1.01521591	      0.66478495	     10.82761593	      0.26537162	     -3.26097338	    -28.96472844	     13.27907228	     -0.90462577	      1.13434419	      1.76597382	     -8.43283357	    -12.99779060	     14.62888038	     -9.05633412	    -12.47992926	     -0.34149973	      0.72699033
      0.08000000	     -0.39330690	     -2.63407592	     -6.76685294	     -1.23186299	      1.01510524	      0.66345098	     11.56788344	      0.21346207	     -2.95254751	    -30.32645857	     13.06497546	     -0.72745531	      1.04161427	      1.86986024	     -8.34203630	    -12.93470159	     14.65406828	     -9.11215621	    -12.51153722	     -0.32520338	      0.65181466
      0.09000000	     -0.39545434	     -2.66474295	     -6.66530203	     -1.23066449	      1.01506395	      0.66214517	     12.33485264	      0.22563769	     -2.57177973	    -31.68536031	     12.80392884	     -0.46820192	      0.95131292	      1.92471451	     -8.24477553	    -12.87624572	     14.68293938	     -9.15264953	    -12.54400746	     -0.25748724	      0.57486336
      0.10000000	     -0.40693180	     -2.73494760	     -6.55481516	     -1.22944621	      1.01508219	      0.66087957	     13.13018326	      0.30314152	     -2.12186912	    -33.02582373	     12.50785533	     -0.13182740	      0.86734982	      1.93109549	     -8.14232908	    -12.82240030	     14.71627809	     -9.17872475	    -12.57379423	     -0.14282036	      0.49888675
      0.11000000	     -0.42670306	     -2.83416229	     -6.42968787	     -1.22820833	      1.01514023	      0.65964491	     13.94540375	      0.43526375	     -1.62149787	    -34.32661171	     12.20553186	      0.25471014	      0.79355231	      1.90031456	     -8.02869044	    -12.77939241	     14.74933859	     -9.19451487	    -12.60139489	      0.00894891	      0.42388621
      0.12000000	     -0.45167266	     -2.94677170	     -6.28595306	     -1.22692257	      1.01520924	      0.65844439	     14.76660445	      0.60173337	     -1.11346006	    -35.57187462	     11.93116149	      0.64217529	      0.72297718	      1.85057915	     -7.89733565	    -12.73852789	     14.78003266	     -9.20396261	    -12.62469838	      0.17688281	      0.33686927
      0.13000000	     -0.48345933	     -3.05228070	     -6.11289923	     -1.22555625	      1.01524828	      0.65726806	     15.57784660	      0.77384705	     -0.64852274	    -36.73402436	     11.72164912	      0.98680276	      0.65404295	      1.80459127	     -7.73634460	    -12.69044656	     14.81891973	     -9.21101802	    -12.63317075	      0.33774667	      0.22316875
      0.14000000	     -0.50635168	     -3.14196095	     -5.90542150	     -1.22409410	      1.01526597	      0.65608898	     16.34280371	      0.92955433	     -0.27420973	    -37.77795987	     11.57744714	      1.21431820	      0.57109012	      1.77531695	     -7.54283186	    -12.63603949	     14.84479602	     -9.21519949	    -12.64497973	      0.48165476	      0.08272672
      0.15000000	     -0.52106142	     -3.21515443	     -5.65756482	     -1.22251759	      1.01525093	      0.65490087	     17.05065295	      1.06144530	     -0.01001867	    -38.68092537	     11.50013924	      1.32441703	      0.47248597	      1.76285260	     -7.31530526	    -12.57222991	     14.87544243	     -9.21904868	    -12.65505291	      0.60853045	     -0.09323312
      0.16000000	     -0.52786251	     -3.27560986	     -5.37506333	     -1.22083588	      1.01521404	      0.65369997	     17.69754293	      1.16873821	      0.14717088	    -39.42422886	     11.45636759	      1.33779359	      0.36144856	      1.76232844	     -7.06382191	    -12.50560015	     14.90172881	     -9.22308686	    -12.66682013	      0.72193032	     -0.29553624
